<svg id="svg" version="1.1" xmlns="http://www.w3.org/2000/svg" xmlns:xlink="http://www.w3.org/1999/xlink" width="400" height="60.1244614648157" viewBox="0, 0, 400,60.1244614648157"><g id="svgg"><path id="path0" d="M17.167 10.417 L 17.167 12.333 27.583 12.333 L 38.000 12.333 38.000 13.833 L 38.000 15.333 19.000 15.333 L 0.000 15.333 0.000 17.250 L 0.000 19.167 20.750 19.167 L 41.500 19.167 41.500 20.833 L 41.500 22.500 24.167 22.500 L 6.833 22.500 6.833 24.417 L 6.833 26.333 15.500 26.333 L 24.167 26.333 24.167 27.833 L 24.167 29.333 20.667 29.333 L 17.167 29.333 17.167 31.083 L 17.167 32.833 10.250 32.833 L 3.333 32.833 3.333 34.750 L 3.333 36.667 12.000 36.667 L 20.667 36.667 20.667 38.167 L 20.667 39.667 18.917 39.667 L 17.167 39.667 17.167 41.500 L 17.167 43.333 12.000 43.333 L 6.833 43.333 6.833 45.250 L 6.833 47.167 13.899 47.167 C 21.743 47.167,21.161 47.258,21.173 46.028 C 21.181 45.199,21.614 43.434,21.828 43.363 C 21.922 43.331,22.000 43.192,22.000 43.054 C 22.000 42.761,22.850 41.167,23.244 40.721 C 23.391 40.554,23.704 40.173,23.938 39.875 C 24.172 39.577,24.451 39.333,24.558 39.333 C 24.665 39.333,24.840 39.194,24.946 39.024 C 25.053 38.854,25.465 38.545,25.862 38.339 C 26.259 38.132,26.621 37.913,26.667 37.852 C 27.699 36.473,34.711 36.444,35.833 37.815 C 35.879 37.871,36.215 38.067,36.581 38.250 C 36.946 38.433,37.505 38.827,37.824 39.125 C 38.142 39.423,38.461 39.667,38.533 39.667 C 38.604 39.667,38.859 39.985,39.099 40.375 C 39.340 40.765,39.622 41.158,39.726 41.250 C 40.047 41.531,40.607 42.705,40.839 43.583 C 40.960 44.042,41.131 44.465,41.220 44.525 C 41.309 44.584,41.418 45.203,41.463 45.900 L 41.544 47.167 55.689 47.167 L 69.833 47.167 69.837 46.458 C 69.843 45.440,70.400 43.045,70.679 42.833 C 70.740 42.788,70.991 42.351,71.237 41.863 C 71.794 40.760,73.642 38.818,74.608 38.321 C 75.007 38.115,75.333 37.887,75.333 37.812 C 75.333 37.609,77.943 36.865,79.093 36.740 C 80.623 36.575,84.667 37.355,84.667 37.816 C 84.667 37.883,84.910 38.068,85.208 38.226 C 85.506 38.384,85.900 38.609,86.083 38.725 C 86.600 39.053,88.000 40.437,88.000 40.621 C 88.000 40.711,88.181 40.980,88.403 41.219 C 88.844 41.696,89.642 43.552,89.786 44.438 C 89.836 44.747,89.936 45.000,90.009 45.000 C 90.081 45.000,90.192 45.487,90.256 46.083 L 90.372 47.167 95.686 47.167 L 101.000 47.167 101.000 45.417 L 101.000 43.667 102.750 43.667 L 104.500 43.667 104.500 38.250 L 104.500 32.833 102.756 32.833 L 101.011 32.833 100.964 31.054 L 100.917 29.275 99.833 29.023 C 99.237 28.884,98.712 28.718,98.667 28.654 C 98.621 28.590,97.608 28.291,96.417 27.990 C 95.225 27.689,94.212 27.392,94.167 27.331 C 94.121 27.270,93.221 27.009,92.167 26.753 C 91.112 26.496,90.175 26.229,90.083 26.159 C 89.992 26.089,88.942 25.792,87.750 25.499 C 86.558 25.207,85.546 24.915,85.500 24.852 C 85.454 24.788,84.367 24.480,83.083 24.167 C 81.800 23.853,80.712 23.548,80.667 23.488 C 80.621 23.427,80.396 23.320,80.167 23.248 C 79.938 23.177,79.470 22.941,79.128 22.726 C 78.786 22.510,78.430 22.333,78.337 22.333 C 78.243 22.333,78.167 22.269,78.167 22.190 C 78.167 22.111,77.722 21.810,77.180 21.520 C 76.637 21.231,76.168 20.939,76.138 20.872 C 76.108 20.805,75.578 20.487,74.960 20.167 C 74.342 19.846,73.836 19.536,73.835 19.478 C 73.834 19.420,73.404 19.158,72.879 18.895 C 72.354 18.632,71.792 18.286,71.630 18.127 C 71.469 17.967,70.998 17.678,70.585 17.483 C 70.172 17.289,69.833 17.072,69.833 17.001 C 69.833 16.930,69.702 16.829,69.542 16.776 C 69.121 16.638,67.794 15.871,67.680 15.700 C 67.627 15.621,67.096 15.300,66.500 14.988 C 65.904 14.675,65.391 14.360,65.359 14.288 C 65.328 14.215,64.866 13.936,64.333 13.667 C 63.801 13.398,63.339 13.119,63.307 13.047 C 63.248 12.912,62.476 12.463,61.542 12.020 C 61.244 11.879,61.000 11.713,61.000 11.652 C 61.000 11.590,60.570 11.325,60.045 11.062 C 59.520 10.799,58.951 10.446,58.781 10.277 C 58.610 10.109,58.222 9.867,57.919 9.740 C 57.615 9.613,57.264 9.414,57.139 9.296 C 56.238 8.455,57.412 8.500,36.516 8.500 L 17.167 8.500 17.167 10.417 M30.083 39.776 C 29.005 39.946,27.986 40.333,27.547 40.740 C 27.294 40.975,27.018 41.167,26.934 41.167 C 26.431 41.167,24.667 43.702,24.667 44.424 C 24.667 44.542,24.573 44.670,24.458 44.709 C 24.306 44.759,24.250 45.354,24.250 46.917 C 24.250 48.480,24.306 49.074,24.458 49.125 C 24.573 49.163,24.667 49.304,24.667 49.438 C 24.667 50.515,27.364 53.333,28.395 53.333 C 28.544 53.333,28.667 53.402,28.667 53.486 C 28.667 54.098,33.505 54.119,34.000 53.510 C 34.046 53.454,34.407 53.265,34.802 53.090 C 35.475 52.794,37.167 51.278,37.167 50.972 C 37.167 50.896,37.312 50.688,37.489 50.511 C 38.170 49.830,38.602 46.292,38.174 44.891 C 37.911 44.028,37.453 42.936,37.310 42.832 C 37.247 42.786,36.972 42.468,36.700 42.126 C 35.334 40.407,32.492 39.398,30.083 39.776 M78.750 39.783 C 78.012 39.881,76.667 40.340,76.667 40.493 C 76.667 40.566,76.432 40.723,76.146 40.842 C 75.427 41.140,74.253 42.371,73.797 43.305 C 73.588 43.733,73.372 44.121,73.316 44.167 C 73.034 44.399,72.797 46.164,72.876 47.434 C 73.023 49.787,74.445 52.024,76.417 53.003 C 76.875 53.230,77.289 53.469,77.337 53.532 C 77.775 54.112,82.417 54.091,82.833 53.507 C 82.879 53.443,83.318 53.174,83.809 52.909 C 84.715 52.421,86.000 51.140,86.000 50.727 C 86.000 50.602,86.070 50.500,86.155 50.500 C 87.302 50.500,87.306 44.480,86.160 43.159 C 85.980 42.952,85.833 42.735,85.833 42.677 C 85.833 42.455,84.269 40.999,83.813 40.798 C 83.549 40.681,83.333 40.538,83.333 40.480 C 83.333 40.014,80.384 39.566,78.750 39.783 " stroke="none" fill="#fc7414" fill-rule="evenodd"></path><path id="path1" d="M357.052 4.987 C 356.863 5.163,356.236 5.546,355.659 5.837 C 355.081 6.129,354.517 6.459,354.404 6.572 C 354.292 6.685,353.611 6.990,352.891 7.250 C 352.172 7.510,351.546 7.772,351.500 7.832 C 351.454 7.892,350.554 8.190,349.500 8.494 C 348.446 8.799,347.546 9.098,347.500 9.159 C 347.454 9.220,346.985 9.371,346.458 9.495 L 345.500 9.720 345.500 11.340 L 345.500 12.960 346.052 13.382 C 346.592 13.793,346.634 13.798,347.903 13.616 C 349.702 13.356,349.667 13.288,349.667 17.022 C 349.667 18.814,349.732 20.021,349.833 20.083 C 350.051 20.218,350.063 37.035,349.846 37.258 C 349.760 37.346,349.664 39.801,349.629 42.750 C 349.559 48.754,349.538 48.875,348.508 49.184 C 348.137 49.295,347.833 49.442,347.833 49.510 C 347.833 49.578,347.268 49.759,346.578 49.913 L 345.322 50.192 345.369 51.962 L 345.417 53.732 345.932 54.032 C 346.402 54.307,346.657 54.319,348.848 54.169 C 351.928 53.959,356.914 53.959,360.000 54.170 C 363.246 54.392,363.232 54.402,363.297 51.954 C 363.339 50.381,363.312 50.184,363.047 50.114 C 362.884 50.071,362.375 49.938,361.917 49.818 C 361.458 49.699,361.008 49.537,360.917 49.458 C 360.825 49.380,360.490 49.188,360.171 49.033 C 359.710 48.807,359.564 48.615,359.452 48.083 C 359.261 47.181,359.432 14.684,359.642 11.750 C 359.734 10.467,359.860 8.742,359.921 7.917 L 360.031 6.417 359.332 5.917 C 358.947 5.642,358.477 5.248,358.286 5.042 C 357.862 4.582,357.504 4.567,357.052 4.987 M388.888 5.053 C 388.629 5.266,387.910 5.653,387.292 5.912 C 386.673 6.171,386.167 6.431,386.167 6.489 C 386.167 6.548,385.398 6.855,384.458 7.173 C 383.519 7.490,382.710 7.804,382.660 7.870 C 382.611 7.935,381.598 8.222,380.410 8.507 C 377.106 9.300,377.333 9.115,377.333 11.010 C 377.333 13.210,377.609 13.500,379.697 13.500 C 381.651 13.500,381.555 13.300,381.638 17.565 L 381.706 21.096 381.020 21.030 C 380.642 20.994,380.333 20.898,380.333 20.816 C 380.333 20.624,378.049 20.620,377.930 20.811 C 377.881 20.891,377.408 21.006,376.879 21.067 C 375.906 21.179,373.693 21.873,373.514 22.123 C 373.460 22.197,373.012 22.464,372.518 22.717 C 370.561 23.715,368.100 26.155,367.106 28.080 C 366.822 28.632,366.532 29.125,366.464 29.175 C 366.268 29.318,365.043 32.980,364.849 34.000 C 364.093 37.981,364.296 44.579,365.237 46.583 C 365.366 46.858,365.590 47.453,365.736 47.904 C 366.476 50.206,368.921 53.219,370.707 54.032 C 373.623 55.359,377.896 54.422,380.415 51.903 C 381.005 51.313,381.130 51.399,380.984 52.292 C 380.764 53.623,380.756 53.606,381.917 54.155 C 383.308 54.812,384.279 54.676,386.500 53.515 C 386.821 53.348,387.908 53.007,388.917 52.758 C 389.925 52.509,390.865 52.246,391.006 52.173 C 391.147 52.101,392.047 51.917,393.006 51.764 C 393.965 51.610,394.919 51.450,395.125 51.406 C 395.485 51.330,395.500 51.257,395.500 49.592 C 395.500 47.324,395.347 47.167,393.140 47.167 C 391.683 47.167,391.655 47.159,391.458 46.708 C 390.951 45.546,391.263 14.198,391.843 8.167 L 391.995 6.583 391.372 6.043 C 391.030 5.746,390.560 5.314,390.327 5.085 C 389.802 4.566,389.490 4.559,388.888 5.053 M147.140 5.829 C 145.538 5.986,143.926 6.274,143.417 6.496 C 143.233 6.576,142.521 6.802,141.833 6.999 C 139.888 7.555,137.193 8.956,135.501 10.291 C 134.722 10.905,131.833 13.838,131.833 14.015 C 131.833 14.092,131.621 14.401,131.361 14.703 C 131.100 15.004,130.669 15.662,130.402 16.167 C 130.135 16.671,129.865 17.122,129.802 17.170 C 129.739 17.218,129.533 17.616,129.345 18.056 C 129.157 18.496,128.817 19.242,128.591 19.715 C 128.365 20.187,128.010 21.288,127.803 22.162 C 127.596 23.035,127.380 23.787,127.323 23.833 C 126.475 24.517,126.464 38.171,127.310 38.833 C 127.369 38.879,127.592 39.629,127.807 40.500 C 128.021 41.371,128.453 42.630,128.765 43.298 C 129.078 43.966,129.333 44.558,129.333 44.613 C 129.333 44.667,129.671 45.225,130.083 45.851 C 130.496 46.477,130.833 47.050,130.833 47.124 C 130.833 47.199,130.965 47.378,131.125 47.523 C 131.285 47.668,131.888 48.348,132.463 49.034 C 133.039 49.720,133.695 50.381,133.921 50.503 C 134.148 50.624,134.333 50.777,134.333 50.843 C 134.333 51.648,140.861 54.667,142.601 54.667 C 142.805 54.667,142.997 54.734,143.028 54.815 C 143.247 55.402,152.450 55.425,152.833 54.840 C 152.879 54.770,153.288 54.658,153.743 54.591 C 154.731 54.445,157.374 53.696,157.497 53.526 C 157.544 53.460,158.138 53.186,158.816 52.917 C 159.494 52.648,160.132 52.349,160.233 52.254 C 160.334 52.159,160.891 51.835,161.471 51.535 C 162.051 51.235,162.684 50.842,162.878 50.661 C 163.071 50.481,163.297 50.333,163.380 50.333 C 163.463 50.333,164.096 49.921,164.787 49.417 C 165.477 48.913,166.095 48.500,166.159 48.500 C 166.713 48.500,166.578 46.524,166.001 46.167 C 165.915 46.114,165.663 45.586,165.440 44.994 C 164.907 43.576,163.589 43.188,162.560 44.147 C 161.969 44.697,158.991 46.121,157.583 46.527 C 156.850 46.738,156.212 46.958,156.167 47.015 C 155.693 47.605,149.009 47.603,148.256 47.013 C 148.161 46.938,147.671 46.745,147.167 46.584 C 146.311 46.309,145.358 45.869,145.167 45.659 C 145.121 45.608,144.821 45.387,144.500 45.167 C 143.935 44.780,142.459 43.330,141.723 42.441 C 138.373 38.389,137.228 28.164,139.320 20.985 C 139.806 19.319,141.072 16.571,141.595 16.048 C 141.726 15.917,141.833 15.754,141.833 15.685 C 141.833 14.992,144.811 12.695,146.500 12.086 C 153.151 9.688,158.675 12.494,160.277 19.083 C 160.589 20.367,160.911 21.679,160.991 22.000 C 161.072 22.321,161.224 23.015,161.331 23.542 L 161.524 24.500 163.553 24.499 C 165.415 24.498,165.623 24.467,166.058 24.119 L 166.532 23.739 166.326 19.917 C 166.212 17.806,166.158 14.476,166.206 12.477 L 166.292 8.859 164.938 8.429 C 164.193 8.192,163.490 7.999,163.375 7.999 C 163.260 8.000,163.167 7.934,163.167 7.853 C 163.167 7.772,162.173 7.466,160.958 7.172 C 159.744 6.879,158.600 6.570,158.417 6.485 C 157.238 5.939,150.206 5.530,147.140 5.829 M234.260 7.117 C 233.855 7.465,233.833 7.570,233.833 9.140 L 233.833 10.796 235.375 11.171 C 236.223 11.377,237.035 11.648,237.180 11.773 C 237.325 11.898,237.566 12.000,237.716 12.000 C 238.495 12.000,239.467 13.317,240.026 15.130 C 240.216 15.746,240.428 16.287,240.499 16.333 C 240.569 16.379,240.869 17.279,241.167 18.333 C 241.464 19.387,241.759 20.287,241.822 20.333 C 241.886 20.379,242.153 21.167,242.415 22.083 C 242.678 23.000,242.945 23.825,243.008 23.917 C 243.072 24.008,243.372 24.946,243.675 26.000 C 243.978 27.054,244.272 27.954,244.328 28.000 C 244.384 28.046,244.679 28.983,244.982 30.083 C 245.286 31.183,245.592 32.158,245.662 32.250 C 245.732 32.342,245.994 33.204,246.244 34.167 C 246.493 35.129,246.796 36.142,246.916 36.417 C 247.130 36.905,247.682 38.752,247.912 39.748 C 247.975 40.022,248.081 40.285,248.148 40.332 C 248.214 40.378,248.515 41.354,248.817 42.500 C 249.118 43.646,249.425 44.658,249.498 44.750 C 249.571 44.842,249.870 45.816,250.162 46.915 C 250.454 48.014,250.751 48.989,250.821 49.082 C 250.892 49.174,251.160 50.038,251.417 51.000 C 251.673 51.962,251.935 52.825,251.999 52.917 C 252.063 53.008,252.258 53.590,252.431 54.208 L 252.746 55.333 254.795 55.333 C 256.599 55.333,256.855 55.299,256.938 55.042 C 256.990 54.881,257.136 54.525,257.262 54.250 C 257.388 53.975,257.688 53.000,257.928 52.083 C 258.168 51.167,258.424 50.342,258.497 50.250 C 258.570 50.158,258.871 49.221,259.167 48.167 C 259.462 47.112,259.767 46.172,259.844 46.076 C 259.921 45.980,260.223 45.043,260.515 43.993 C 260.807 42.943,261.097 42.046,261.159 42.000 C 261.222 41.954,261.482 41.167,261.739 40.250 C 261.995 39.333,262.265 38.507,262.340 38.414 C 262.415 38.321,262.718 37.421,263.013 36.414 C 263.309 35.407,263.601 34.546,263.662 34.500 C 263.724 34.454,264.023 33.554,264.328 32.500 C 264.632 31.446,264.929 30.546,264.988 30.500 C 265.047 30.454,265.208 30.042,265.347 29.583 L 265.600 28.750 265.829 29.583 C 265.955 30.042,266.112 30.454,266.177 30.500 C 266.242 30.546,266.534 31.444,266.826 32.497 C 267.118 33.549,267.418 34.486,267.493 34.580 C 267.568 34.673,267.871 35.608,268.167 36.657 C 268.462 37.706,268.769 38.681,268.848 38.824 C 268.927 38.967,269.228 39.908,269.517 40.917 C 269.807 41.925,270.098 42.825,270.164 42.917 C 270.231 43.008,270.490 43.871,270.740 44.833 C 270.990 45.795,271.253 46.657,271.325 46.749 C 271.397 46.841,271.702 47.892,272.004 49.083 C 272.306 50.275,272.610 51.326,272.680 51.419 C 272.751 51.511,273.009 52.430,273.255 53.460 L 273.702 55.333 275.839 55.333 L 277.976 55.333 278.227 54.458 C 278.364 53.977,278.601 53.096,278.753 52.500 C 278.905 51.904,279.088 51.342,279.160 51.250 C 279.231 51.158,279.490 50.318,279.734 49.382 C 279.978 48.446,280.280 47.434,280.405 47.132 C 280.531 46.830,280.838 45.796,281.088 44.833 C 281.339 43.871,281.601 43.008,281.672 42.917 C 281.742 42.825,282.045 41.850,282.345 40.750 C 282.645 39.650,282.937 38.712,282.994 38.667 C 283.050 38.621,283.345 37.683,283.649 36.583 C 283.953 35.483,284.257 34.508,284.326 34.417 C 284.394 34.325,284.664 33.462,284.926 32.500 C 285.188 31.537,285.449 30.712,285.507 30.667 C 285.564 30.621,285.866 29.683,286.178 28.583 C 286.489 27.483,286.786 26.546,286.838 26.500 C 286.890 26.454,287.183 25.554,287.489 24.500 C 287.794 23.446,288.096 22.546,288.159 22.500 C 288.221 22.454,288.482 21.667,288.739 20.750 C 288.995 19.833,289.266 19.007,289.341 18.913 C 289.416 18.820,289.714 17.889,290.004 16.844 C 290.294 15.800,290.598 14.826,290.680 14.681 C 290.762 14.536,291.008 13.997,291.227 13.484 C 291.767 12.220,292.639 11.640,294.746 11.142 L 296.333 10.767 296.333 9.061 C 296.333 6.542,297.024 6.738,288.223 6.765 L 281.029 6.786 280.508 7.194 L 279.987 7.602 280.035 9.173 L 280.083 10.743 281.583 11.163 C 282.408 11.394,283.411 11.733,283.811 11.915 L 284.538 12.247 284.427 13.327 C 284.366 13.921,284.258 14.447,284.186 14.495 C 284.114 14.544,283.841 15.521,283.578 16.667 C 283.316 17.813,283.052 18.787,282.992 18.833 C 282.933 18.879,282.639 19.929,282.340 21.167 C 282.040 22.404,281.734 23.494,281.658 23.588 C 281.583 23.682,281.279 24.732,280.983 25.921 C 280.687 27.110,280.397 28.121,280.338 28.167 C 280.279 28.212,280.017 29.075,279.756 30.083 C 279.496 31.092,279.226 31.992,279.157 32.083 C 279.087 32.175,278.916 32.689,278.777 33.225 C 278.445 34.498,278.424 34.503,278.173 33.376 C 278.056 32.848,277.907 32.379,277.842 32.333 C 277.777 32.287,277.478 31.275,277.178 30.083 C 276.878 28.892,276.575 27.842,276.506 27.750 C 276.437 27.658,276.172 26.721,275.916 25.667 C 275.661 24.613,275.362 23.563,275.252 23.333 C 275.142 23.104,274.839 22.017,274.577 20.917 C 274.316 19.817,274.053 18.879,273.993 18.833 C 273.933 18.787,273.644 17.741,273.351 16.508 C 273.059 15.276,272.742 14.175,272.649 14.062 C 272.555 13.949,272.435 13.439,272.383 12.929 L 272.287 12.002 273.018 11.684 C 273.421 11.508,274.444 11.199,275.292 10.996 L 276.833 10.628 276.833 9.046 C 276.833 6.557,277.903 6.782,266.076 6.782 C 254.213 6.782,255.333 6.543,255.333 9.075 L 255.333 10.810 256.292 11.070 C 258.354 11.631,259.980 12.613,260.418 13.563 C 261.293 15.459,261.493 15.972,261.855 17.250 C 262.062 17.983,262.311 18.637,262.408 18.702 C 262.635 18.856,262.637 20.309,262.409 20.464 C 262.314 20.530,262.020 21.333,261.757 22.250 C 261.494 23.167,261.213 24.003,261.132 24.109 C 261.051 24.215,260.764 25.076,260.494 26.022 C 260.223 26.969,259.895 27.969,259.764 28.246 C 259.634 28.523,259.324 29.462,259.075 30.333 C 258.826 31.204,258.571 31.954,258.507 32.000 C 258.443 32.046,258.212 32.710,257.993 33.476 L 257.595 34.868 257.326 34.226 C 257.178 33.872,256.846 32.758,256.589 31.750 C 256.332 30.742,256.065 29.842,255.996 29.750 C 255.927 29.658,255.626 28.608,255.327 27.417 C 255.028 26.225,254.736 25.212,254.678 25.167 C 254.621 25.121,254.399 24.371,254.186 23.500 C 253.973 22.629,253.626 21.392,253.414 20.750 C 253.202 20.108,252.856 18.871,252.645 18.000 C 252.433 17.129,252.210 16.379,252.148 16.333 C 252.042 16.255,251.167 12.820,251.167 12.483 C 251.167 12.148,252.745 11.349,253.926 11.087 L 255.167 10.811 255.167 9.076 C 255.167 6.530,256.268 6.769,244.489 6.759 L 234.687 6.750 234.260 7.117 M306.083 20.264 C 304.865 20.437,303.599 20.704,303.352 20.841 C 303.204 20.922,302.485 21.221,301.754 21.505 C 301.022 21.788,300.385 22.080,300.337 22.152 C 300.289 22.224,299.917 22.492,299.510 22.747 C 298.684 23.265,296.333 25.611,296.333 25.918 C 296.333 26.026,296.173 26.258,295.977 26.433 C 295.620 26.750,294.667 28.577,294.667 28.944 C 294.667 29.051,294.586 29.166,294.487 29.199 C 294.252 29.277,293.540 32.038,293.398 33.418 C 293.337 34.013,293.223 34.500,293.144 34.500 C 293.065 34.500,293.000 35.813,293.000 37.417 C 293.000 39.021,293.064 40.333,293.142 40.333 C 293.220 40.333,293.333 40.952,293.393 41.708 C 293.515 43.249,294.244 46.387,294.500 46.472 C 294.592 46.503,294.667 46.624,294.667 46.741 C 294.667 47.079,295.655 49.167,295.815 49.167 C 295.894 49.167,296.046 49.373,296.151 49.625 C 296.331 50.054,297.332 51.177,298.437 52.190 C 299.451 53.120,301.310 54.049,302.941 54.441 C 303.569 54.592,304.264 54.798,304.484 54.899 C 305.027 55.149,310.469 55.150,310.631 54.900 C 310.696 54.800,311.076 54.666,311.475 54.604 C 312.306 54.474,314.520 53.729,314.658 53.532 C 314.708 53.460,315.101 53.198,315.530 52.950 C 315.959 52.702,316.409 52.406,316.530 52.290 C 316.651 52.175,317.005 51.871,317.317 51.613 C 318.050 51.009,319.439 49.271,319.873 48.417 C 320.059 48.050,320.274 47.710,320.350 47.660 C 320.426 47.611,320.682 47.049,320.919 46.410 C 321.155 45.772,321.458 45.014,321.591 44.725 C 322.881 41.929,322.836 30.873,321.527 29.096 C 321.455 28.997,321.185 28.410,320.929 27.792 C 320.672 27.173,320.405 26.667,320.335 26.667 C 320.265 26.667,320.106 26.423,319.983 26.126 C 319.708 25.462,317.510 23.134,316.686 22.634 C 316.355 22.432,316.043 22.210,315.994 22.141 C 315.863 21.953,314.168 21.228,313.542 21.092 C 313.244 21.027,313.000 20.912,313.000 20.838 C 313.000 20.485,307.650 20.042,306.083 20.264 M208.814 20.645 C 208.216 21.114,204.877 22.752,203.833 23.088 C 203.329 23.250,202.878 23.442,202.830 23.514 C 202.782 23.587,201.807 23.890,200.663 24.190 C 199.519 24.489,198.546 24.783,198.500 24.843 C 198.454 24.903,198.135 25.004,197.792 25.067 L 197.167 25.182 197.167 26.781 C 197.167 28.843,197.612 29.446,198.966 29.221 C 200.620 28.945,201.209 29.029,201.353 29.562 C 201.612 30.520,201.698 37.836,201.509 42.750 C 201.267 49.034,201.319 48.738,200.400 49.116 C 199.997 49.281,199.668 49.473,199.667 49.542 C 199.667 49.610,199.519 49.667,199.339 49.667 C 199.126 49.667,199.042 49.585,199.100 49.434 C 199.193 49.190,198.398 47.526,197.872 46.863 C 197.388 46.255,196.380 46.195,195.540 46.725 C 193.558 47.976,193.569 48.026,193.638 38.583 C 193.694 30.961,193.534 27.429,193.089 26.417 C 192.968 26.142,192.729 25.554,192.559 25.110 C 192.228 24.246,190.777 22.500,190.390 22.500 C 190.262 22.500,190.116 22.394,190.066 22.264 C 189.896 21.823,187.419 21.013,186.208 21.004 C 185.910 21.002,185.667 20.925,185.667 20.833 C 185.667 20.628,182.391 20.605,182.264 20.810 C 182.216 20.889,181.607 21.005,180.912 21.068 C 179.577 21.189,176.504 21.903,176.344 22.130 C 176.292 22.204,175.912 22.367,175.500 22.492 C 175.088 22.617,174.244 22.986,173.625 23.312 L 172.500 23.903 172.500 24.775 C 172.500 25.255,172.425 25.693,172.333 25.750 C 172.242 25.807,172.167 26.092,172.167 26.385 C 172.167 26.677,172.005 28.219,171.807 29.810 C 171.323 33.686,171.300 33.653,174.856 34.107 L 175.628 34.205 175.836 33.561 C 175.950 33.207,176.100 32.842,176.169 32.750 C 176.239 32.658,176.542 31.983,176.843 31.250 C 177.144 30.517,177.441 29.879,177.502 29.833 C 177.562 29.787,177.811 29.412,178.054 29.000 C 178.840 27.667,180.136 26.832,181.416 26.834 C 183.294 26.838,184.051 27.861,184.400 30.868 L 184.492 31.652 183.496 32.159 C 182.948 32.438,182.031 32.903,181.458 33.193 C 180.885 33.482,180.376 33.779,180.327 33.854 C 180.278 33.928,179.715 34.225,179.077 34.514 C 178.439 34.803,177.876 35.103,177.827 35.181 C 177.778 35.258,177.215 35.558,176.577 35.847 C 175.939 36.136,175.379 36.423,175.333 36.486 C 175.287 36.548,174.908 36.797,174.489 37.039 C 174.071 37.280,173.433 37.744,173.072 38.068 C 172.712 38.393,172.366 38.661,172.304 38.663 C 172.242 38.665,171.947 39.098,171.648 39.625 C 171.350 40.152,171.053 40.621,170.989 40.667 C 169.788 41.527,169.804 50.667,171.007 50.667 C 171.095 50.667,171.168 50.760,171.170 50.875 C 171.175 51.213,172.078 52.447,172.686 52.948 C 172.996 53.203,173.287 53.459,173.333 53.517 C 174.477 54.962,180.508 54.951,182.210 53.501 C 182.323 53.404,182.792 53.086,183.250 52.793 C 183.708 52.501,184.121 52.222,184.167 52.173 C 184.664 51.638,185.333 51.685,185.333 52.254 C 185.333 54.475,191.500 55.370,193.738 53.473 C 193.836 53.390,194.254 53.101,194.667 52.832 C 195.079 52.562,195.792 52.076,196.250 51.751 L 197.083 51.161 197.132 52.322 C 197.195 53.809,197.768 54.437,198.909 54.268 C 200.404 54.046,208.717 53.966,211.825 54.144 C 215.954 54.380,215.833 54.448,215.833 51.899 C 215.833 50.414,215.795 50.178,215.542 50.105 C 215.381 50.059,214.819 49.924,214.292 49.806 C 213.765 49.688,213.333 49.540,213.333 49.479 C 213.333 49.417,212.957 49.276,212.497 49.166 C 211.280 48.874,211.167 48.630,211.167 46.306 C 211.167 45.184,211.096 44.309,211.000 44.250 C 210.795 44.123,210.773 39.557,210.977 39.431 C 211.055 39.382,211.162 38.497,211.214 37.463 C 211.401 33.747,213.345 30.008,214.991 30.200 C 215.480 30.257,216.131 31.289,216.153 32.042 L 216.167 32.500 218.000 32.500 C 219.726 32.500,219.833 32.480,219.833 32.164 C 219.833 31.980,219.903 31.699,219.988 31.539 C 220.073 31.380,220.227 30.462,220.331 29.500 C 220.584 27.133,220.983 24.642,221.160 24.316 C 221.240 24.169,221.356 23.716,221.417 23.309 L 221.528 22.568 220.639 22.124 C 217.910 20.758,214.005 21.452,212.911 23.497 C 212.787 23.728,212.513 24.117,212.301 24.361 C 212.090 24.605,211.822 24.943,211.706 25.111 C 211.533 25.362,211.514 25.086,211.597 23.569 L 211.700 21.721 211.201 21.514 C 210.926 21.400,210.558 21.173,210.382 21.010 C 210.079 20.727,209.439 20.333,209.283 20.333 C 209.244 20.333,209.033 20.474,208.814 20.645 M334.971 20.654 C 334.343 21.148,331.716 22.463,330.422 22.932 C 329.784 23.163,329.184 23.415,329.089 23.492 C 328.994 23.569,328.054 23.866,327.000 24.153 C 325.946 24.440,324.933 24.744,324.750 24.828 C 324.567 24.912,324.173 25.028,323.875 25.087 L 323.333 25.193 323.333 26.790 C 323.333 28.817,323.805 29.443,325.160 29.217 C 327.877 28.762,327.718 28.240,327.710 37.583 C 327.700 48.000,327.583 48.961,326.292 49.255 C 326.040 49.313,325.833 49.418,325.833 49.488 C 325.833 49.559,325.271 49.749,324.583 49.911 L 323.333 50.206 323.333 51.838 C 323.333 53.834,323.782 54.460,325.075 54.268 C 326.570 54.046,334.884 53.966,337.991 54.144 C 342.122 54.380,342.000 54.449,342.000 51.894 L 342.000 50.180 341.375 50.016 C 341.031 49.926,340.530 49.799,340.261 49.733 C 339.992 49.668,339.580 49.515,339.344 49.392 C 339.109 49.269,338.669 49.121,338.366 49.064 C 337.442 48.889,337.378 48.628,337.259 44.500 C 337.093 38.798,337.560 33.695,338.296 33.179 C 338.370 33.126,338.640 32.671,338.896 32.167 C 340.112 29.771,342.317 29.691,342.331 32.042 L 342.333 32.500 344.250 32.500 C 345.304 32.500,346.167 32.443,346.167 32.374 C 346.167 31.267,347.161 24.460,347.341 24.333 C 347.406 24.287,347.510 23.875,347.571 23.417 L 347.682 22.583 346.883 22.140 C 344.111 20.604,340.507 21.376,338.821 23.867 C 338.555 24.261,338.183 24.771,337.995 25.000 L 337.654 25.417 337.763 23.578 L 337.872 21.739 337.102 21.343 C 336.679 21.126,336.333 20.896,336.333 20.834 C 336.333 20.739,335.602 20.333,335.431 20.333 C 335.402 20.333,335.195 20.478,334.971 20.654 M308.611 25.506 C 309.313 25.750,310.313 27.023,310.747 28.224 C 310.951 28.788,311.201 29.453,311.302 29.701 C 312.423 32.448,312.346 46.700,311.207 47.485 C 311.128 47.539,310.962 47.836,310.837 48.144 C 309.738 50.860,306.307 50.455,305.267 47.486 C 305.093 46.990,304.893 46.508,304.824 46.417 C 304.117 45.490,302.940 34.493,303.489 33.944 C 303.587 33.847,303.667 33.350,303.667 32.842 C 303.668 31.161,304.420 27.475,304.825 27.167 C 304.885 27.121,305.154 26.791,305.422 26.434 C 306.177 25.429,307.384 25.078,308.611 25.506 M379.589 26.908 C 379.907 27.041,380.167 27.225,380.167 27.316 C 380.167 27.408,380.350 27.681,380.575 27.923 C 381.920 29.375,382.042 44.015,380.716 44.985 C 380.642 45.039,380.377 45.358,380.127 45.693 C 378.115 48.394,374.932 44.928,374.554 39.625 C 374.497 38.823,374.386 38.167,374.308 38.167 C 374.230 38.167,374.167 37.417,374.167 36.500 C 374.167 35.500,374.233 34.833,374.333 34.833 C 374.425 34.833,374.500 34.435,374.500 33.947 C 374.500 29.306,377.012 25.832,379.589 26.908 M184.450 41.292 C 184.350 44.871,184.194 45.996,183.734 46.457 C 183.604 46.587,183.417 46.843,183.319 47.027 C 182.835 47.930,181.208 48.074,180.417 47.284 C 179.279 46.146,179.117 42.269,180.158 41.083 C 180.319 40.900,180.495 40.623,180.550 40.468 C 180.604 40.313,180.859 40.055,181.116 39.896 C 181.373 39.736,181.745 39.462,181.944 39.287 C 182.252 39.016,184.288 37.729,184.484 37.683 C 184.520 37.674,184.505 39.298,184.450 41.292 " stroke="none" fill="#040404" fill-rule="evenodd"></path></g></svg>